<svg width="500" height="500" viewBox="0 0 500 500" fill="none" xmlns="http://www.w3.org/2000/svg">
<path d="M458.242 276.199H309.549V57.942H458.242V276.199ZM313.549 272.199H454.242V61.942H313.549V272.199Z" fill="#EBEBEB"/>
<path d="M385.837 62.987H381.837V274.199H385.837V62.987Z" fill="#EBEBEB"/>
<path d="M461.868 66.028H305.922V71.598H461.868V66.028Z" fill="#EBEBEB"/>
<path d="M461.868 72.295H305.922V77.865H461.868V72.295Z" fill="#EBEBEB"/>
<path d="M461.868 78.561H305.922V84.131H461.868V78.561Z" fill="#EBEBEB"/>
<path d="M461.868 84.827H305.922V90.397H461.868V84.827Z" fill="#EBEBEB"/>
<path d="M461.868 91.094H305.922V96.664H461.868V91.094Z" fill="#EBEBEB"/>
<path d="M461.868 97.36H305.922V102.93H461.868V97.36Z" fill="#EBEBEB"/>
<path d="M461.868 103.626H305.922V109.196H461.868V103.626Z" fill="#EBEBEB"/>
<path d="M461.868 109.893H305.922V115.463H461.868V109.893Z" fill="#EBEBEB"/>
<path d="M461.868 116.159H305.922V121.729H461.868V116.159Z" fill="#EBEBEB"/>
<path d="M449.988 64.899H448.988V193.286H449.988V64.899Z" fill="#263238"/>
<path d="M451.266 197.944H447.715L448.605 192.844H450.375L451.266 197.944Z" fill="#263238"/>
<path d="M453.593 64.899H452.593V240.631H453.593V64.899Z" fill="#263238"/>
<path d="M454.867 244.38H451.317L452.207 239.28H453.977L454.867 244.38Z" fill="#263238"/>
<path d="M468.076 57.161H299.715V68.814H468.076V57.161Z" fill="#DBDBDB"/>
<path d="M65.991 171.547C65.991 170.711 66.102 168.482 66.102 167.534C66.102 163.465 64.653 161.625 60.863 161.514C59.079 161.403 58.02 160.344 58.02 158.839C58.02 157.333 59.079 156.275 60.863 156.163C64.653 155.996 66.102 154.212 66.102 150.087C66.102 149.14 65.991 146.91 65.991 146.074C65.991 140.667 68.276 137.211 76.916 135.316C78.644 134.925 79.981 135.985 79.981 137.601C79.981 138.939 79.089 139.664 78.42 139.886C73.014 141.558 72.232 143.286 72.232 147.076C72.232 148.191 72.344 150.03 72.344 151.201C72.344 155.549 70.226 157.667 66.546 158.838C70.281 160.064 72.344 162.126 72.344 166.474C72.344 167.645 72.232 169.484 72.232 170.599C72.232 174.389 73.013 176.118 78.42 177.79C79.089 178.013 79.981 178.737 79.981 180.075C79.981 181.692 78.643 182.751 76.916 182.361C68.276 180.466 65.991 177.01 65.991 171.547Z" fill="#EBEBEB"/>
<path d="M98.654 146.074C98.654 146.91 98.543 149.139 98.543 150.087C98.543 154.212 100.048 155.996 103.839 156.163C105.567 156.274 106.626 157.333 106.626 158.839C106.626 160.344 105.566 161.403 103.839 161.514C100.048 161.625 98.543 163.465 98.543 167.534C98.543 168.481 98.654 170.711 98.654 171.547C98.654 177.01 96.369 180.466 87.729 182.361C86.001 182.751 84.664 181.692 84.664 180.075C84.664 178.737 85.556 178.012 86.28 177.79C91.632 176.118 92.412 174.39 92.412 170.599C92.412 169.484 92.301 167.645 92.301 166.474C92.301 162.126 94.419 160.008 98.098 158.838C94.363 157.611 92.301 155.549 92.301 151.201C92.301 150.03 92.412 148.191 92.412 147.076C92.412 143.286 91.632 141.557 86.28 139.886C85.555 139.663 84.664 138.939 84.664 137.601C84.664 135.985 86.002 134.925 87.729 135.316C96.369 137.211 98.654 140.667 98.654 146.074Z" fill="#EBEBEB"/>
<path d="M213.589 93.746C214.885 95.095 214.885 97.118 213.589 98.416C212.914 99.038 212.136 99.35 211.306 99.35C210.424 99.35 209.593 99.039 208.919 98.416L194.34 83.629C194.184 83.577 194.133 83.473 194.08 83.318C194.029 83.266 193.924 83.214 193.924 83.214C193.821 83.058 193.821 82.955 193.768 82.799C193.665 82.747 193.612 82.643 193.612 82.591C193.561 82.487 193.561 82.331 193.509 82.28C193.509 82.124 193.405 82.072 193.405 82.02C193.405 81.864 193.405 81.761 193.405 81.657C193.405 81.553 193.354 81.501 193.354 81.345C193.354 81.294 193.405 81.138 193.405 81.086C193.405 80.982 193.405 80.827 193.405 80.723C193.405 80.619 193.509 80.567 193.509 80.515C193.56 80.359 193.56 80.256 193.612 80.1C193.612 80.048 193.665 80.048 193.665 79.996C193.768 79.84 193.821 79.633 193.923 79.529C193.923 79.529 193.923 79.425 194.027 79.425C194.078 79.321 194.183 79.166 194.338 79.062L208.917 64.276C210.213 63.031 212.34 63.031 213.586 64.276C214.882 65.573 214.882 67.649 213.586 68.945L201.289 81.345L213.589 93.746Z" fill="#EBEBEB"/>
<path d="M226.818 95.407L239.529 65.159C240.153 63.707 241.813 63.032 243.318 63.654C244.718 64.225 245.392 65.937 244.77 67.338L232.059 97.638C231.592 98.727 230.503 99.35 229.412 99.35C229.101 99.35 228.687 99.299 228.376 99.143C226.87 98.571 226.195 96.86 226.818 95.407Z" fill="#EBEBEB"/>
<path d="M269.879 83.213C269.879 83.213 269.879 83.265 269.828 83.265C269.724 83.368 269.621 83.524 269.465 83.628L254.886 98.415C254.264 99.037 253.381 99.349 252.552 99.349C251.67 99.349 250.892 99.038 250.217 98.415C248.921 97.117 248.921 95.095 250.217 93.745L262.514 81.344L250.217 68.944C248.921 67.647 248.921 65.571 250.217 64.275C251.462 63.03 253.59 63.03 254.886 64.275L269.465 79.061C269.621 79.165 269.723 79.321 269.828 79.424C269.879 79.424 269.879 79.528 269.879 79.528C269.983 79.736 270.087 79.84 270.139 79.995C270.139 80.046 270.192 80.046 270.192 80.099C270.244 80.255 270.244 80.358 270.348 80.566C270.348 80.618 270.399 80.618 270.399 80.722C270.399 80.826 270.399 80.982 270.399 81.085C270.399 81.137 270.45 81.293 270.45 81.344C270.45 81.396 270.399 81.552 270.399 81.604C270.399 81.76 270.399 81.863 270.399 82.019C270.399 82.071 270.348 82.071 270.348 82.123C270.244 82.33 270.244 82.486 270.192 82.59C270.192 82.642 270.139 82.642 270.139 82.746C270.088 82.85 269.984 83.006 269.879 83.213Z" fill="#EBEBEB"/>
<path d="M250 442.73C361.307 442.73 451.54 435.538 451.54 426.666C451.54 417.794 361.307 410.602 250 410.602C138.693 410.602 48.46 417.794 48.46 426.666C48.46 435.538 138.693 442.73 250 442.73Z" fill="#EBEBEB"/>
<path d="M440.04 407.23H318.92L343.07 266.75H433.64L440.04 407.23Z" fill="#DBDBDB"/>
<path d="M440.04 407.23H429.42L423.46 266.75H433.64L440.04 407.23Z" fill="#A6A6A6"/>
<path d="M40.741 407.232L93.056 406.988L145.37 406.9L250 406.733L354.63 406.899L406.944 406.987L459.259 407.232L406.944 407.476L354.63 407.564L250 407.73L145.37 407.563L93.056 407.475L40.741 407.232Z" fill="#263238"/>
<path d="M154.436 57.161H55.055V120.556H154.436V57.161Z" fill="white"/>
<path d="M155.064 121.184H54.427V56.532H155.064V121.184ZM55.683 119.928H153.808V57.789H55.683V119.928Z" fill="#EBEBEB"/>
<path d="M154.436 57.161H55.055V69.15H154.436V57.161Z" fill="#FFC727"/>
<path d="M155.064 69.778H54.427V56.532H155.064V69.778ZM55.683 68.521H153.808V57.789H55.683V68.521Z" fill="#EBEBEB"/>
<path d="M66.309 63.242C66.309 64.908 64.958 66.259 63.292 66.259C61.625 66.259 60.275 64.908 60.275 63.242C60.275 61.576 61.626 60.225 63.292 60.225C64.959 60.225 66.309 61.576 66.309 63.242Z" fill="#A6A6A6"/>
<path d="M78.631 63.242C78.631 64.908 77.28 66.259 75.614 66.259C73.948 66.259 72.597 64.908 72.597 63.242C72.597 61.576 73.948 60.225 75.614 60.225C77.28 60.225 78.631 61.576 78.631 63.242Z" fill="#EBEBEB"/>
<path d="M90.952 63.242C90.952 64.908 89.601 66.259 87.935 66.259C86.269 66.259 84.918 64.908 84.918 63.242C84.918 61.576 86.269 60.225 87.935 60.225C89.601 60.225 90.952 61.576 90.952 63.242Z" fill="white"/>
<path d="M72.207 92.854C72.24 86.243 77.784 80.867 84.461 80.834C87.4 80.834 90.071 81.802 92.175 83.438C92.976 84.106 93.11 85.274 92.509 86.109C91.842 86.944 90.606 87.078 89.838 86.476C88.368 85.274 86.532 84.64 84.461 84.64C82.157 84.64 80.02 85.575 78.451 87.044C76.948 88.58 76.013 90.584 76.013 92.854C76.013 95.125 76.948 97.195 78.451 98.665C80.02 100.134 82.157 101.069 84.461 101.069C86.532 101.069 88.335 100.435 89.838 99.233C90.606 98.666 91.841 98.799 92.509 99.6C93.11 100.435 92.976 101.637 92.175 102.271C90.071 103.907 87.4 104.875 84.461 104.875C77.784 104.875 72.241 99.5 72.207 92.854Z" fill="#EBEBEB"/>
<path d="M98.2521 99.065C98.8531 98.33 99.9551 98.23 100.69 98.831C102.159 100.033 104.697 101.435 107.067 101.402C108.737 101.402 110.239 100.902 111.242 100.167C112.243 99.433 112.677 98.598 112.677 97.763C112.677 97.329 112.578 97.028 112.377 96.695C112.177 96.361 111.876 96.027 111.376 95.693C110.407 95.058 108.772 94.491 106.801 94.123H106.734C105.165 93.822 103.695 93.422 102.427 92.821C101.159 92.22 100.056 91.385 99.3221 90.217C98.8201 89.415 98.5541 88.481 98.5541 87.479C98.5541 85.476 99.6891 83.739 101.225 82.604C102.794 81.469 104.832 80.834 107.002 80.834C110.208 80.834 112.579 82.404 114.282 83.505C115.05 84.039 115.283 85.108 114.749 85.876C114.247 86.678 113.179 86.911 112.378 86.377C110.675 85.242 109.039 84.24 107.002 84.24C105.499 84.24 104.163 84.707 103.262 85.375C102.362 86.043 101.994 86.778 101.994 87.479C101.994 87.88 102.061 88.147 102.228 88.414C102.395 88.682 102.695 88.982 103.13 89.283C103.997 89.884 105.5 90.418 107.303 90.752H107.369C109.073 91.086 110.642 91.52 111.978 92.154C113.347 92.822 114.548 93.69 115.316 94.926C115.818 95.727 116.118 96.729 116.118 97.764C116.118 99.901 114.916 101.738 113.246 102.94C111.609 104.142 109.439 104.843 107.068 104.843C103.463 104.809 100.424 103.007 98.5201 101.504C97.7841 100.902 97.6841 99.8 98.2521 99.065Z" fill="#EBEBEB"/>
<path d="M120.189 99.065C120.79 98.33 121.892 98.23 122.627 98.831C124.095 100.033 126.634 101.435 129.004 101.402C130.674 101.402 132.176 100.902 133.179 100.167C134.18 99.433 134.614 98.598 134.614 97.763C134.614 97.329 134.515 97.028 134.314 96.695C134.114 96.361 133.813 96.027 133.313 95.693C132.344 95.058 130.709 94.491 128.738 94.123H128.67C127.101 93.822 125.631 93.422 124.363 92.821C123.094 92.22 121.992 91.385 121.258 90.217C120.756 89.415 120.49 88.481 120.49 87.479C120.49 85.476 121.625 83.739 123.161 82.604C124.73 81.469 126.768 80.834 128.938 80.834C132.143 80.834 134.515 82.404 136.218 83.505C136.986 84.039 137.219 85.108 136.685 85.876C136.183 86.678 135.115 86.911 134.314 86.377C132.611 85.242 130.975 84.24 128.938 84.24C127.435 84.24 126.099 84.707 125.198 85.375C124.298 86.043 123.93 86.778 123.93 87.479C123.93 87.88 123.998 88.147 124.164 88.414C124.331 88.682 124.631 88.982 125.066 89.283C125.933 89.884 127.436 90.418 129.239 90.752H129.305C131.009 91.086 132.578 91.52 133.914 92.154C135.283 92.822 136.484 93.69 137.252 94.926C137.754 95.727 138.054 96.729 138.054 97.764C138.054 99.901 136.852 101.738 135.182 102.94C133.545 104.142 131.375 104.843 129.004 104.843C125.399 104.809 122.36 103.007 120.456 101.504C119.721 100.902 119.62 99.8 120.189 99.065Z" fill="#EBEBEB"/>
<path d="M318.584 238.543H219.203V301.938H318.584V238.543Z" fill="white"/>
<path d="M319.211 302.566H218.575V237.915H319.211V302.566ZM219.831 301.309H317.955V239.171H219.831V301.309Z" fill="#EBEBEB"/>
<path d="M318.584 238.543H219.203V250.532H318.584V238.543Z" fill="#FFC727"/>
<path d="M319.211 251.159H218.575V237.914H319.211V251.159ZM219.831 249.903H317.955V239.171H219.831V249.903Z" fill="#EBEBEB"/>
<path d="M230.457 244.624C230.457 246.29 229.106 247.641 227.439 247.641C225.772 247.641 224.422 246.29 224.422 244.624C224.422 242.957 225.773 241.607 227.439 241.607C229.106 241.607 230.457 242.958 230.457 244.624Z" fill="#A6A6A6"/>
<path d="M242.778 244.624C242.778 246.29 241.427 247.641 239.761 247.641C238.095 247.641 236.744 246.29 236.744 244.624C236.744 242.957 238.095 241.607 239.761 241.607C241.427 241.607 242.778 242.958 242.778 244.624Z" fill="#EBEBEB"/>
<path d="M255.099 244.624C255.099 246.29 253.748 247.641 252.081 247.641C250.415 247.641 249.063 246.29 249.063 244.624C249.063 242.957 250.414 241.607 252.081 241.607C253.748 241.607 255.099 242.958 255.099 244.624Z" fill="white"/>
<path d="M237.758 274.237C237.791 267.626 243.334 262.25 250.012 262.217C252.95 262.217 255.622 263.186 257.726 264.821C258.527 265.489 258.661 266.658 258.06 267.492C257.391 268.327 256.156 268.461 255.388 267.859C253.92 266.657 252.083 266.022 250.012 266.022C247.708 266.022 245.571 266.957 244.002 268.426C242.499 269.962 241.564 271.966 241.564 274.236C241.564 276.507 242.499 278.577 244.002 280.047C245.571 281.516 247.708 282.451 250.012 282.451C252.083 282.451 253.885 281.817 255.388 280.614C256.156 280.047 257.391 280.18 258.06 280.981C258.661 281.816 258.527 283.018 257.726 283.652C255.622 285.288 252.95 286.256 250.012 286.256C243.333 286.258 237.791 280.882 237.758 274.237Z" fill="#EBEBEB"/>
<path d="M269.778 276.341H265.037C264.036 276.341 263.201 275.54 263.201 274.505C263.201 273.503 264.036 272.669 265.037 272.669H269.778V268.028C269.778 266.959 270.613 266.125 271.682 266.125C272.717 266.125 273.585 266.96 273.585 268.028V272.669H278.326C279.328 272.669 280.162 273.504 280.162 274.505C280.162 275.54 279.328 276.341 278.326 276.341H273.585V280.983C273.585 282.051 272.718 282.886 271.682 282.886C270.613 282.886 269.778 282.051 269.778 280.983V276.341Z" fill="#EBEBEB"/>
<path d="M290.479 276.341H285.738C284.736 276.341 283.902 275.54 283.902 274.505C283.902 273.503 284.736 272.669 285.738 272.669H290.479V268.028C290.479 266.959 291.313 266.125 292.382 266.125C293.417 266.125 294.286 266.96 294.286 268.028V272.669H299.027C300.028 272.669 300.863 273.504 300.863 274.505C300.863 275.54 300.028 276.341 299.027 276.341H294.286V280.983C294.286 282.051 293.417 282.886 292.382 282.886C291.314 282.886 290.479 282.051 290.479 280.983V276.341Z" fill="#EBEBEB"/>
<path d="M272.229 116.734H106.49V252.847H272.229V116.734Z" fill="white"/>
<path d="M272.857 253.476H105.862V116.106H272.857V253.476ZM107.118 252.219H271.601V117.363H107.118V252.219Z" fill="#EBEBEB"/>
<path d="M272.229 116.734H106.49V128.723H272.229V116.734Z" fill="#FFC727"/>
<path d="M272.857 129.351H105.862V116.106H272.857V129.351ZM107.118 128.095H271.601V117.363H107.118V128.095Z" fill="#EBEBEB"/>
<path d="M117.744 122.816C117.744 124.483 116.393 125.833 114.726 125.833C113.06 125.833 111.709 124.482 111.709 122.816C111.709 121.15 113.06 119.799 114.726 119.799C116.393 119.798 117.744 121.149 117.744 122.816Z" fill="#A6A6A6"/>
<path d="M130.065 122.816C130.065 124.483 128.714 125.833 127.048 125.833C125.382 125.833 124.031 124.482 124.031 122.816C124.031 121.15 125.382 119.799 127.048 119.799C128.714 119.798 130.065 121.149 130.065 122.816Z" fill="#EBEBEB"/>
<path d="M142.386 122.816C142.386 124.483 141.035 125.833 139.368 125.833C137.702 125.833 136.351 124.482 136.351 122.816C136.351 121.15 137.702 119.799 139.368 119.799C141.035 119.798 142.386 121.149 142.386 122.816Z" fill="white"/>
<path d="M125.761 152.573H119.351V154.914H125.761V152.573Z" fill="#EBEBEB"/>
<path d="M203.957 152.573H130.432V154.914H203.957V152.573Z" fill="#EBEBEB"/>
<path d="M220.071 152.573H207.896V154.914H220.071V152.573Z" fill="#FFC727"/>
<path d="M247.918 183.903H235.743V186.244H247.918V183.903Z" fill="#EBEBEB"/>
<path d="M243.765 152.573H222.718V154.914H243.765V152.573Z" fill="#A6A6A6"/>
<path d="M132.171 158.839H125.761V161.18H132.171V158.839Z" fill="#EBEBEB"/>
<path d="M184.933 158.839H136.681V161.18H184.933V158.839Z" fill="#A6A6A6"/>
<path d="M232.852 183.903H204.6V186.244H232.852V183.903Z" fill="#A6A6A6"/>
<path d="M176.52 177.637H130.432V179.978H176.52V177.637Z" fill="#A6A6A6"/>
<path d="M169.013 165.105H136.681V167.446H169.013V165.105Z" fill="#FFC727"/>
<path d="M228.37 171.371H216.038V173.712H228.37V171.371Z" fill="#A6A6A6"/>
<path d="M224.233 165.105H172.601V167.446H224.233V165.105Z" fill="#A6A6A6"/>
<path d="M192.064 183.903H130.432V186.244H192.064V183.903Z" fill="#FFC727"/>
<path d="M254.761 158.839H221.36V161.18H254.761V158.839Z" fill="#FFC727"/>
<path d="M218.713 158.839H187.962V161.18H218.713V158.839Z" fill="#EBEBEB"/>
<path d="M247.411 165.105H226.66V167.446H247.411V165.105Z" fill="#EBEBEB"/>
<path d="M132.171 165.105H125.761V167.446H132.171V165.105Z" fill="#EBEBEB"/>
<path d="M125.761 171.371H119.351V173.712H125.761V171.371Z" fill="#A6A6A6"/>
<path d="M168.314 171.371H130.432V173.712H168.314V171.371Z" fill="#EBEBEB"/>
<path d="M174.563 190.169H136.681V192.51H174.563V190.169Z" fill="#EBEBEB"/>
<path d="M236.116 196.435H207.317V198.776H236.116V196.435Z" fill="#FFC727"/>
<path d="M215.626 190.169H177.638V192.51H215.626V190.169Z" fill="#FFC727"/>
<path d="M204.005 196.435H170.938V198.776H204.005V196.435Z" fill="#EBEBEB"/>
<path d="M147.649 196.435H136.681V198.776H147.649V196.435Z" fill="#A6A6A6"/>
<path d="M220.071 177.637H179.128V179.978H220.071V177.637Z" fill="#EBEBEB"/>
<path d="M248.769 177.637H222.718V179.978H248.769V177.637Z" fill="#FFC727"/>
<path d="M213.058 171.371H172.165V173.712H213.058V171.371Z" fill="#FFC727"/>
<path d="M125.761 177.637H119.351V179.978H125.761V177.637Z" fill="#EBEBEB"/>
<path d="M125.761 183.903H119.351V186.244H125.761V183.903Z" fill="#EBEBEB"/>
<path d="M132.171 190.169H125.761V192.51H132.171V190.169Z" fill="#A6A6A6"/>
<path d="M132.171 196.435H125.761V198.776H132.171V196.435Z" fill="#EBEBEB"/>
<path d="M125.761 201.683H119.351V204.024H125.761V201.683Z" fill="#EBEBEB"/>
<path d="M203.957 201.683H130.432V204.024H203.957V201.683Z" fill="#EBEBEB"/>
<path d="M132.171 207.949H125.761V210.29H132.171V207.949Z" fill="#EBEBEB"/>
<path d="M184.933 207.949H136.681V210.29H184.933V207.949Z" fill="#A6A6A6"/>
<path d="M176.52 226.748H130.432V229.089H176.52V226.748Z" fill="#A6A6A6"/>
<path d="M169.013 214.215H136.681V216.556H169.013V214.215Z" fill="#FFC727"/>
<path d="M224.233 214.215H172.601V216.556H224.233V214.215Z" fill="#A6A6A6"/>
<path d="M192.064 233.014H130.432V235.355H192.064V233.014Z" fill="#FFC727"/>
<path d="M254.761 207.949H221.36V210.29H254.761V207.949Z" fill="#FFC727"/>
<path d="M218.713 207.949H187.962V210.29H218.713V207.949Z" fill="#EBEBEB"/>
<path d="M247.411 214.215H226.66V216.556H247.411V214.215Z" fill="#EBEBEB"/>
<path d="M132.171 214.215H125.761V216.556H132.171V214.215Z" fill="#EBEBEB"/>
<path d="M125.761 220.482H119.351V222.823H125.761V220.482Z" fill="#A6A6A6"/>
<path d="M168.314 220.482H130.432V222.823H168.314V220.482Z" fill="#EBEBEB"/>
<path d="M220.071 226.748H179.128V229.089H220.071V226.748Z" fill="#EBEBEB"/>
<path d="M213.058 220.482H172.165V222.823H213.058V220.482Z" fill="#FFC727"/>
<path d="M125.761 226.748H119.351V229.089H125.761V226.748Z" fill="#EBEBEB"/>
<path d="M123.31 146.407C123.531 146.636 123.531 146.979 123.31 147.199C123.196 147.304 123.065 147.357 122.924 147.357C122.774 147.357 122.633 147.304 122.519 147.199L120.047 144.692C120.02 144.683 120.011 144.666 120.003 144.639C119.994 144.63 119.976 144.621 119.976 144.621C119.959 144.595 119.959 144.577 119.95 144.551C119.932 144.542 119.923 144.525 119.923 144.516C119.914 144.498 119.914 144.472 119.906 144.463C119.906 144.437 119.887 144.428 119.887 144.419C119.887 144.393 119.887 144.375 119.887 144.358C119.887 144.34 119.879 144.332 119.879 144.305C119.879 144.296 119.887 144.269 119.887 144.261C119.887 144.243 119.887 144.217 119.887 144.2C119.887 144.182 119.906 144.174 119.906 144.164C119.914 144.138 119.914 144.12 119.923 144.093C119.923 144.084 119.932 144.084 119.932 144.076C119.95 144.05 119.959 144.014 119.976 143.997C119.976 143.997 119.976 143.979 119.994 143.979C120.003 143.961 120.02 143.935 120.047 143.918L122.519 141.411C122.739 141.199 123.099 141.199 123.31 141.411C123.531 141.631 123.531 141.983 123.31 142.203L121.226 144.306L123.31 146.407Z" fill="#FFC727"/>
<path d="M125.552 146.688L127.708 141.558C127.813 141.312 128.094 141.197 128.35 141.303C128.588 141.399 128.702 141.69 128.597 141.927L126.442 147.065C126.362 147.25 126.178 147.355 125.993 147.355C125.94 147.355 125.87 147.346 125.818 147.32C125.56 147.225 125.446 146.935 125.552 146.688Z" fill="#FFC727"/>
<path d="M132.852 144.62C132.852 144.62 132.852 144.629 132.843 144.629C132.825 144.647 132.807 144.673 132.78 144.691L130.308 147.198C130.203 147.303 130.053 147.356 129.912 147.356C129.762 147.356 129.631 147.303 129.517 147.198C129.296 146.978 129.296 146.635 129.517 146.406L131.601 144.303L129.517 142.2C129.296 141.98 129.296 141.628 129.517 141.408C129.728 141.196 130.089 141.196 130.308 141.408L132.78 143.915C132.807 143.932 132.824 143.959 132.843 143.976C132.852 143.976 132.852 143.994 132.852 143.994C132.869 144.029 132.886 144.047 132.896 144.073C132.896 144.082 132.904 144.082 132.904 144.09C132.913 144.117 132.913 144.134 132.93 144.17C132.93 144.178 132.938 144.178 132.938 144.196C132.938 144.213 132.938 144.239 132.938 144.257C132.938 144.265 132.948 144.292 132.948 144.301C132.948 144.31 132.938 144.336 132.938 144.345C132.938 144.371 132.938 144.389 132.938 144.416C132.938 144.425 132.93 144.425 132.93 144.434C132.913 144.469 132.913 144.495 132.904 144.513C132.904 144.522 132.896 144.522 132.896 144.539C132.886 144.559 132.869 144.586 132.852 144.62Z" fill="#FFC727"/>
<path d="M291.13 97.646H223.427V122.711H291.13V97.646Z" fill="#455A64"/>
<path d="M233.197 115.379V104.262C233.197 103.678 233.65 103.226 234.234 103.226C234.818 103.226 235.289 103.678 235.289 104.262V108.784H240.169V104.262C240.169 103.678 240.622 103.226 241.206 103.226C241.79 103.226 242.261 103.678 242.261 104.262V115.379C242.261 115.964 241.79 116.416 241.206 116.416C240.622 116.416 240.169 115.964 240.169 115.379V110.857H235.289V115.379C235.289 115.964 234.818 116.416 234.234 116.416C233.649 116.416 233.197 115.964 233.197 115.379Z" fill="white"/>
<path d="M254.621 105.318H251.625V115.379C251.625 115.964 251.172 116.416 250.588 116.416C250.022 116.416 249.553 115.964 249.553 115.379V105.318H246.576C245.992 105.318 245.539 104.828 245.539 104.262C245.539 103.678 245.992 103.226 246.576 103.226H254.621C255.187 103.226 255.658 103.678 255.658 104.262C255.657 104.828 255.186 105.318 254.621 105.318Z" fill="white"/>
<path d="M270.11 104.262V115.379C270.11 115.945 269.619 116.416 269.055 116.416C268.47 116.416 268.018 115.945 268.018 115.379V107.447L265.304 111.216C265.097 111.498 264.795 111.649 264.456 111.649H264.438H264.418C264.079 111.649 263.759 111.498 263.552 111.216L260.857 107.447V115.379C260.857 115.945 260.386 116.416 259.802 116.416C259.236 116.416 258.765 115.945 258.765 115.379V104.262C258.765 103.697 259.236 103.226 259.802 103.226C259.822 103.226 259.822 103.226 259.858 103.226C260.16 103.226 260.498 103.377 260.687 103.659L264.437 108.86L268.186 103.659C268.393 103.377 268.695 103.226 269.034 103.226C269.034 103.226 269.034 103.226 269.054 103.226C269.619 103.245 270.11 103.697 270.11 104.262Z" fill="white"/>
<path d="M274.67 115.379V104.262C274.67 103.697 275.123 103.226 275.706 103.226C276.29 103.226 276.761 103.697 276.761 104.262V114.324H281.868C282.414 114.324 282.903 114.795 282.903 115.379C282.903 115.945 282.414 116.416 281.868 116.416H275.763C275.726 116.416 275.726 116.416 275.726 116.416C275.706 116.416 275.706 116.416 275.706 116.416C275.122 116.416 274.67 115.945 274.67 115.379Z" fill="white"/>
<path d="M110.22 193.415H54.427V218.48H110.22V193.415Z" fill="#455A64"/>
<path d="M71.025 207.06H68.709V211.148C68.709 211.714 68.238 212.185 67.654 212.185C67.087 212.185 66.616 211.714 66.616 211.148V200.031C66.616 199.447 67.087 198.995 67.654 198.995H67.674H71.025C73.268 198.995 75.078 200.804 75.078 203.046C75.079 205.251 73.268 207.06 71.025 207.06ZM68.709 204.968H71.025C72.119 204.968 72.966 204.101 72.985 203.046C72.965 201.954 72.119 201.087 71.025 201.087H68.709V204.968Z" fill="white"/>
<path d="M77.603 211.148V200.031C77.603 199.447 78.054 198.995 78.638 198.995C79.222 198.995 79.693 199.447 79.693 200.031V204.553H84.573V200.031C84.573 199.447 85.027 198.995 85.611 198.995C86.195 198.995 86.666 199.447 86.666 200.031V211.148C86.666 211.733 86.195 212.185 85.611 212.185C85.027 212.185 84.573 211.733 84.573 211.148V206.626H79.693V211.148C79.693 211.733 79.222 212.185 78.638 212.185C78.055 212.185 77.603 211.733 77.603 211.148Z" fill="white"/>
<path d="M95.372 207.06H93.053V211.148C93.053 211.714 92.582 212.185 91.998 212.185C91.434 212.185 90.963 211.714 90.963 211.148V200.031C90.963 199.447 91.434 198.995 91.998 198.995H92.018H95.372C97.614 198.995 99.423 200.804 99.423 203.046C99.422 205.251 97.614 207.06 95.372 207.06ZM93.053 204.968H95.372C96.464 204.968 97.313 204.101 97.332 203.046C97.312 201.954 96.463 201.087 95.372 201.087H93.053V204.968Z" fill="white"/>
<path d="M274.665 191.783L278.899 202.005L274.671 203.755L270.415 193.463L263.428 198.884V170.087L283.586 190.452L274.665 191.783Z" fill="#263238"/>
<path d="M263.428 166.947C263.226 166.464 263.181 165.982 263.172 165.499C263.18 165.016 263.225 164.534 263.428 164.051C263.631 164.534 263.676 165.016 263.684 165.499C263.675 165.982 263.63 166.465 263.428 166.947Z" fill="#263238"/>
<path d="M260.934 167.98C260.45 167.781 260.077 167.472 259.729 167.137C259.393 166.79 259.084 166.417 258.886 165.932C259.371 166.13 259.744 166.439 260.091 166.775C260.426 167.123 260.735 167.496 260.934 167.98Z" fill="#263238"/>
<path d="M259.901 170.474C259.419 170.676 258.936 170.721 258.453 170.73C257.97 170.723 257.488 170.677 257.005 170.474C257.487 170.271 257.97 170.226 258.453 170.218C258.936 170.227 259.418 170.272 259.901 170.474Z" fill="#263238"/>
<path d="M260.934 172.968C260.735 173.452 260.426 173.825 260.091 174.173C259.744 174.509 259.371 174.818 258.886 175.016C259.084 174.531 259.393 174.158 259.729 173.811C260.077 173.475 260.45 173.166 260.934 172.968Z" fill="#263238"/>
<path d="M266.954 170.474C267.437 170.272 267.919 170.227 268.402 170.218C268.885 170.226 269.367 170.271 269.85 170.474C269.367 170.677 268.885 170.723 268.402 170.73C267.92 170.721 267.437 170.676 266.954 170.474Z" fill="#263238"/>
<path d="M265.921 167.98C266.12 167.496 266.429 167.123 266.764 166.775C267.111 166.439 267.484 166.13 267.969 165.932C267.771 166.417 267.462 166.79 267.126 167.137C266.779 167.473 266.405 167.782 265.921 167.98Z" fill="#263238"/>
<path d="M339.366 290.425C331.656 324.001 316.05 366.512 303.991 375.086C294.265 382.005 243.242 394.192 240.397 394.499C233.353 395.21 219.442 345.451 226.744 343.429C235.944 340.882 279.671 339.521 282.159 336.967C284.74 334.296 300.653 312.747 318.669 287.784C331.104 270.534 344.15 269.592 339.366 290.425Z" fill="#DD6A57"/>
<path d="M246.052 391.766C245.213 392.191 233.299 398.183 225.932 400.319C220.436 401.912 204.491 406.074 202.137 400.197C200.526 396.191 209.614 392.64 215.984 389.985C219.34 388.587 223.476 385.074 222.487 382.916C220.758 379.144 212.118 382.933 206.437 386.234C195.45 392.618 180.815 404.108 174.104 398.535C171.57 396.428 174.515 392.591 178.825 388.829C171.832 393.213 164.374 396.81 161.466 394.581C159.796 393.312 159.719 391.569 160.648 389.579C158.489 390.281 156.581 390.144 155.251 388.737C152.977 386.358 154.086 382.847 156.572 379.248C155.775 379.165 155.058 378.759 154.508 377.892C149.695 370.554 173.785 349.483 182.117 347.512C206.629 341.685 232.706 343.809 232.706 343.809C242.333 351.501 246.071 391.749 246.052 391.766Z" fill="#DD6A57"/>
<path d="M210.007 369.201C204.234 370.105 198.552 372.264 193.657 375.495C187.443 379.596 183.321 384.397 178.107 389.232C177.97 389.359 178.163 389.576 178.301 389.449C180.786 387.151 191.08 378.511 193.74 376.548C198.614 372.95 204.059 370.423 210.03 369.302C210.093 369.288 210.071 369.191 210.007 369.201Z" fill="#263238"/>
<path d="M205.439 358.8C198.997 360.561 192.395 362.342 186.416 365.39C179.872 368.725 174.751 374.161 169.716 379.393C166.692 382.535 163.734 385.74 160.857 389.017C160.736 389.154 160.92 389.371 161.05 389.234C166.159 383.829 171.429 378.572 176.859 373.489C181.967 368.708 187.664 365.048 194.208 362.555C197.895 361.15 201.682 360.03 205.463 358.914C205.535 358.892 205.512 358.78 205.439 358.8Z" fill="#263238"/>
<path d="M198.557 349.704C192.298 350.989 186.837 352.089 181.294 355.443C173.956 359.883 166.873 367.365 164.387 370.018C161.642 372.948 158.997 375.967 156.398 379.027C156.292 379.151 156.506 379.339 156.616 379.216C162.556 372.526 168.956 366.172 175.711 360.306C178.939 357.503 182.448 355.061 186.387 353.363C190.282 351.685 194.455 350.735 198.565 349.748C198.593 349.74 198.585 349.698 198.557 349.704Z" fill="#263238"/>
<path d="M282.536 332.073L329.566 330.078C329.566 330.078 338.106 306.775 341.247 286.087C344.388 265.399 326.764 272.825 309.305 295.106C291.847 317.385 282.536 332.073 282.536 332.073Z" fill="#FFC727"/>
<path d="M297.926 318.013C298.246 317.924 298.565 317.885 298.885 317.82C299.182 317.762 299.606 317.748 299.949 317.891C300.671 318.142 301.204 318.891 301.211 319.685C301.199 320.207 301.456 320.676 301.897 320.973C302.125 321.12 302.363 321.202 302.687 321.239C303.006 321.305 303.326 321.343 303.646 321.433C303.326 321.523 303.007 321.561 302.687 321.627C302.373 321.686 301.96 321.678 301.618 321.524C300.903 321.253 300.407 320.462 300.42 319.699C300.425 319.205 300.141 318.724 299.692 318.45C299.456 318.31 299.223 318.244 298.885 318.206C298.566 318.141 298.246 318.102 297.926 318.013ZM331.014 289.444C331.352 289.482 331.585 289.548 331.821 289.688C332.27 289.961 332.554 290.443 332.549 290.937C332.536 291.7 333.033 292.491 333.747 292.762C334.089 292.916 334.503 292.924 334.816 292.865C335.136 292.799 335.455 292.761 335.775 292.671C335.455 292.581 335.136 292.543 334.816 292.477C334.492 292.44 334.254 292.358 334.026 292.211C333.585 291.914 333.328 291.445 333.34 290.923C333.333 290.13 332.8 289.38 332.078 289.129C331.735 288.986 331.31 289 331.014 289.058C330.694 289.123 330.375 289.162 330.055 289.251C330.375 289.34 330.694 289.379 331.014 289.444ZM332.207 307.766C331.941 307.979 331.73 308.096 331.464 308.164C330.953 308.288 330.412 308.149 330.066 307.796C329.535 307.247 328.625 307.039 327.928 307.353C327.578 307.486 327.279 307.773 327.1 308.036C326.92 308.308 326.722 308.562 326.559 308.851C326.848 308.688 327.102 308.49 327.374 308.31C327.629 308.107 327.856 307.997 328.121 307.939C328.642 307.837 329.156 307.988 329.517 308.365C330.083 308.921 330.99 309.074 331.677 308.741C332.021 308.599 332.311 308.289 332.48 308.038C332.66 307.766 332.859 307.513 333.022 307.224C332.733 307.388 332.48 307.586 332.207 307.766ZM319.43 286.39C319.16 286.6 318.95 286.72 318.68 286.79C318.17 286.91 317.63 286.77 317.28 286.42C317.2 286.34 317.12 286.27 317.03 286.2C316.84 286.39 316.66 286.58 316.48 286.78C316.57 286.83 316.66 286.91 316.74 286.99C317.3 287.55 318.21 287.7 318.9 287.37C319.24 287.23 319.53 286.92 319.7 286.66C319.88 286.39 320.08 286.14 320.24 285.85C319.95 286.01 319.7 286.21 319.43 286.39ZM314.111 304.002C314.073 304.341 314.007 304.573 313.867 304.809C313.593 305.258 313.112 305.542 312.618 305.537C311.855 305.524 311.064 306.021 310.793 306.735C310.639 307.077 310.631 307.491 310.69 307.804C310.756 308.124 310.794 308.443 310.884 308.763C310.974 308.443 311.012 308.124 311.078 307.804C311.115 307.48 311.197 307.242 311.344 307.014C311.641 306.573 312.11 306.317 312.632 306.328C313.426 306.321 314.175 305.788 314.426 305.066C314.569 304.723 314.554 304.298 314.497 304.001C314.432 303.681 314.393 303.362 314.304 303.042C314.215 303.363 314.176 303.682 314.111 304.002ZM327.575 321.912C327.537 322.251 327.471 322.483 327.331 322.719C327.058 323.168 326.576 323.452 326.082 323.447C325.319 323.434 324.528 323.93 324.257 324.645C324.103 324.987 324.095 325.4 324.154 325.714C324.22 326.033 324.258 326.353 324.348 326.673C324.438 326.353 324.476 326.034 324.542 325.714C324.579 325.39 324.661 325.152 324.808 324.924C325.104 324.483 325.574 324.227 326.096 324.238C326.889 324.231 327.639 323.698 327.89 322.976C328.033 322.633 328.019 322.208 327.961 321.911C327.896 321.591 327.857 321.272 327.768 320.952C327.678 321.272 327.64 321.592 327.575 321.912Z" fill="white"/>
<path d="M331.17 319.869C320.999 319.61 310.795 320.061 300.627 320.712C297.75 320.896 294.877 321.148 292.012 321.468C291.931 321.477 291.922 321.596 292.008 321.597C297.09 321.619 302.171 321.434 307.254 321.278C312.35 321.122 317.452 320.924 322.543 320.625C325.419 320.456 328.292 320.29 331.164 320.062C331.287 320.052 331.297 319.872 331.17 319.869Z" fill="#263238"/>
<path d="M295.729 407.232H415.765C417.087 404.806 397.414 299.66 356.932 270.055C347.95 263.486 332.017 267.71 327.585 274.097C305.31 306.198 295.729 407.232 295.729 407.232Z" fill="#FFC727"/>
<path d="M346.639 318.013C346.959 317.924 347.278 317.885 347.598 317.82C347.895 317.762 348.319 317.748 348.662 317.891C349.384 318.142 349.917 318.891 349.924 319.685C349.912 320.207 350.169 320.676 350.61 320.973C350.838 321.12 351.076 321.202 351.4 321.239C351.72 321.305 352.039 321.343 352.359 321.433C352.039 321.523 351.72 321.561 351.4 321.627C351.087 321.686 350.673 321.678 350.331 321.524C349.616 321.253 349.12 320.462 349.133 319.699C349.138 319.205 348.854 318.724 348.405 318.45C348.169 318.31 347.936 318.244 347.598 318.206C347.278 318.141 346.958 318.102 346.639 318.013ZM365.287 381.482C365.626 381.52 365.858 381.586 366.094 381.726C366.543 381.999 366.827 382.481 366.822 382.975C366.809 383.738 367.305 384.529 368.02 384.8C368.362 384.954 368.775 384.962 369.089 384.903C369.409 384.837 369.728 384.799 370.048 384.709C369.728 384.619 369.409 384.581 369.089 384.515C368.765 384.478 368.527 384.396 368.299 384.249C367.858 383.953 367.602 383.483 367.613 382.961C367.606 382.168 367.073 381.418 366.351 381.167C366.008 381.024 365.583 381.038 365.287 381.096C364.967 381.161 364.648 381.2 364.328 381.289C364.648 381.378 364.968 381.417 365.287 381.482ZM387.306 321.626C387.645 321.664 387.877 321.73 388.113 321.87C388.562 322.143 388.846 322.625 388.841 323.119C388.828 323.882 389.324 324.673 390.039 324.944C390.381 325.098 390.794 325.106 391.108 325.047C391.428 324.981 391.747 324.943 392.067 324.853C391.748 324.763 391.428 324.725 391.108 324.659C390.784 324.622 390.546 324.54 390.318 324.393C389.877 324.096 389.621 323.627 389.632 323.105C389.625 322.312 389.092 321.562 388.37 321.311C388.027 321.168 387.603 321.182 387.306 321.24C386.986 321.305 386.667 321.344 386.347 321.433C386.667 321.522 386.986 321.56 387.306 321.626ZM331.014 289.444C331.352 289.482 331.585 289.548 331.821 289.688C332.27 289.961 332.554 290.443 332.549 290.937C332.536 291.7 333.033 292.491 333.747 292.762C334.089 292.916 334.503 292.924 334.816 292.865C335.136 292.799 335.455 292.761 335.775 292.671C335.455 292.581 335.136 292.543 334.816 292.477C334.492 292.44 334.254 292.358 334.026 292.211C333.585 291.914 333.328 291.445 333.34 290.923C333.333 290.13 332.8 289.38 332.078 289.129C331.735 288.986 331.31 289 331.014 289.058C330.694 289.123 330.375 289.162 330.055 289.251C330.375 289.34 330.694 289.379 331.014 289.444ZM365.663 288.719C366.002 288.757 366.234 288.823 366.47 288.963C366.919 289.236 367.203 289.718 367.198 290.212C367.185 290.975 367.681 291.766 368.396 292.037C368.738 292.191 369.151 292.199 369.465 292.14C369.785 292.074 370.104 292.036 370.424 291.946C370.104 291.856 369.785 291.818 369.465 291.752C369.141 291.715 368.903 291.633 368.675 291.486C368.234 291.189 367.978 290.72 367.989 290.198C367.982 289.405 367.449 288.655 366.727 288.404C366.384 288.261 365.959 288.275 365.663 288.333C365.343 288.398 365.024 288.437 364.704 288.526C365.024 288.615 365.343 288.653 365.663 288.719ZM322.509 344.681C322.848 344.719 323.08 344.785 323.316 344.925C323.765 345.198 324.049 345.68 324.044 346.174C324.031 346.938 324.528 347.728 325.242 347.999C325.584 348.153 325.997 348.161 326.311 348.102C326.63 348.036 326.95 347.998 327.27 347.908C326.95 347.818 326.631 347.78 326.311 347.714C325.987 347.677 325.749 347.595 325.521 347.448C325.08 347.151 324.824 346.682 324.835 346.16C324.828 345.367 324.295 344.617 323.573 344.366C323.229 344.223 322.805 344.237 322.508 344.295C322.188 344.36 321.869 344.399 321.549 344.488C321.87 344.577 322.189 344.616 322.509 344.681ZM360.294 402.658C360.633 402.696 360.865 402.762 361.101 402.902C361.55 403.176 361.834 403.657 361.829 404.151C361.816 404.914 362.312 405.705 363.027 405.976C363.369 406.13 363.783 406.138 364.096 406.079C364.416 406.013 364.735 405.975 365.055 405.885C364.735 405.795 364.416 405.757 364.096 405.691C363.772 405.654 363.534 405.572 363.306 405.425C362.865 405.128 362.609 404.659 362.62 404.137C362.613 403.343 362.08 402.594 361.358 402.343C361.015 402.2 360.591 402.214 360.294 402.272C359.974 402.337 359.655 402.376 359.335 402.465C359.655 402.554 359.975 402.593 360.294 402.658ZM341.69 371.505C342.029 371.543 342.261 371.609 342.497 371.749C342.946 372.023 343.23 372.504 343.225 372.998C343.212 373.761 343.708 374.552 344.423 374.823C344.765 374.977 345.178 374.985 345.492 374.926C345.812 374.86 346.131 374.822 346.451 374.732C346.131 374.642 345.812 374.604 345.492 374.538C345.168 374.501 344.93 374.419 344.702 374.272C344.261 373.976 344.005 373.506 344.016 372.984C344.009 372.191 343.476 371.441 342.754 371.19C342.411 371.047 341.987 371.062 341.69 371.119C341.37 371.184 341.051 371.223 340.731 371.312C341.05 371.402 341.37 371.44 341.69 371.505ZM299.09 403.44C298.77 403.4 298.53 403.32 298.3 403.17C297.86 402.88 297.6 402.41 297.62 401.88C297.61 401.14 297.14 400.43 296.48 400.15C296.45 400.41 296.42 400.65 296.4 400.89C296.67 401.16 296.83 401.52 296.82 401.9C296.81 402.66 297.31 403.45 298.02 403.72C298.36 403.88 298.78 403.89 299.09 403.83C299.41 403.76 299.73 403.72 300.05 403.63C299.73 403.54 299.41 403.5 299.09 403.44ZM307.273 377.166C307.612 377.204 307.844 377.27 308.08 377.41C308.529 377.683 308.813 378.165 308.808 378.659C308.795 379.422 309.291 380.213 310.006 380.484C310.348 380.638 310.762 380.646 311.075 380.587C311.395 380.521 311.714 380.483 312.034 380.393C311.714 380.303 311.395 380.265 311.075 380.199C310.751 380.162 310.513 380.08 310.285 379.933C309.844 379.636 309.588 379.167 309.599 378.645C309.592 377.852 309.059 377.102 308.337 376.851C307.994 376.708 307.569 376.722 307.272 376.78C306.952 376.845 306.633 376.884 306.313 376.973C306.634 377.062 306.954 377.101 307.273 377.166ZM357.533 345.444C357.872 345.482 358.104 345.548 358.34 345.688C358.789 345.961 359.073 346.443 359.068 346.937C359.055 347.7 359.551 348.491 360.266 348.762C360.608 348.916 361.021 348.924 361.335 348.865C361.655 348.799 361.974 348.761 362.294 348.671C361.974 348.581 361.655 348.543 361.335 348.477C361.011 348.44 360.773 348.358 360.545 348.211C360.104 347.914 359.848 347.445 359.859 346.923C359.852 346.13 359.319 345.38 358.597 345.129C358.254 344.986 357.83 345 357.533 345.058C357.213 345.123 356.894 345.162 356.574 345.251C356.893 345.34 357.213 345.379 357.533 345.444ZM401.546 388.098C401.885 388.136 402.117 388.202 402.353 388.342C402.802 388.616 403.086 389.097 403.081 389.591C403.068 390.354 403.564 391.145 404.279 391.416C404.621 391.57 405.034 391.578 405.348 391.519C405.668 391.453 405.987 391.415 406.307 391.325C405.987 391.235 405.668 391.197 405.348 391.131C405.024 391.094 404.786 391.012 404.558 390.865C404.117 390.569 403.861 390.099 403.872 389.577C403.865 388.784 403.332 388.034 402.61 387.783C402.266 387.64 401.843 387.654 401.546 387.712C401.226 387.777 400.907 387.816 400.587 387.905C400.907 387.994 401.227 388.033 401.546 388.098ZM384.074 362.06C384.413 362.098 384.645 362.164 384.881 362.304C385.33 362.577 385.614 363.059 385.609 363.553C385.596 364.316 386.093 365.107 386.807 365.378C387.149 365.532 387.562 365.54 387.876 365.481C388.196 365.415 388.515 365.377 388.835 365.287C388.515 365.197 388.196 365.159 387.876 365.093C387.552 365.056 387.314 364.974 387.086 364.827C386.645 364.53 386.389 364.061 386.4 363.539C386.393 362.746 385.86 361.996 385.138 361.745C384.795 361.602 384.371 361.616 384.074 361.674C383.754 361.739 383.435 361.778 383.115 361.867C383.435 361.956 383.755 361.995 384.074 362.06ZM332.207 307.766C331.941 307.979 331.73 308.096 331.464 308.164C330.953 308.288 330.412 308.149 330.066 307.796C329.535 307.247 328.625 307.039 327.928 307.353C327.578 307.486 327.279 307.773 327.1 308.036C326.92 308.308 326.722 308.562 326.559 308.851C326.848 308.688 327.102 308.49 327.374 308.31C327.629 308.107 327.856 307.997 328.121 307.939C328.642 307.837 329.156 307.988 329.517 308.365C330.083 308.921 330.99 309.074 331.677 308.741C332.021 308.599 332.311 308.289 332.48 308.038C332.66 307.766 332.859 307.513 333.022 307.224C332.733 307.388 332.48 307.586 332.207 307.766ZM383.925 344.979C383.659 345.192 383.448 345.309 383.182 345.377C382.671 345.501 382.13 345.361 381.784 345.009C381.253 344.46 380.343 344.252 379.646 344.566C379.296 344.699 378.997 344.986 378.817 345.249C378.638 345.521 378.439 345.775 378.276 346.064C378.565 345.901 378.819 345.703 379.091 345.523C379.346 345.32 379.573 345.21 379.838 345.152C380.359 345.05 380.873 345.201 381.234 345.578C381.8 346.134 382.707 346.287 383.394 345.954C383.738 345.812 384.028 345.502 384.197 345.251C384.377 344.979 384.576 344.726 384.739 344.437C384.45 344.601 384.197 344.799 383.925 344.979ZM351.65 275.694C351.384 275.907 351.173 276.025 350.907 276.092C350.396 276.216 349.855 276.077 349.509 275.724C348.978 275.175 348.068 274.967 347.371 275.281C347.021 275.414 346.722 275.701 346.543 275.964C346.363 276.236 346.165 276.49 346.002 276.779C346.291 276.617 346.545 276.418 346.817 276.238C347.072 276.035 347.299 275.925 347.564 275.867C348.085 275.765 348.599 275.916 348.96 276.293C349.526 276.849 350.433 277.002 351.121 276.669C351.465 276.527 351.754 276.217 351.924 275.966C352.104 275.694 352.303 275.441 352.466 275.152C352.176 275.315 351.923 275.514 351.65 275.694ZM351.015 296.216C350.977 296.555 350.911 296.787 350.771 297.023C350.498 297.472 350.016 297.756 349.522 297.751C348.758 297.738 347.968 298.235 347.697 298.949C347.543 299.291 347.535 299.705 347.594 300.018C347.66 300.338 347.698 300.657 347.788 300.977C347.878 300.657 347.916 300.338 347.982 300.018C348.019 299.694 348.101 299.456 348.248 299.228C348.544 298.787 349.014 298.53 349.536 298.542C350.329 298.535 351.079 298.002 351.33 297.28C351.473 296.937 351.459 296.513 351.401 296.216C351.336 295.896 351.297 295.577 351.208 295.257C351.119 295.577 351.081 295.896 351.015 296.216ZM343.398 352.445C343.36 352.784 343.294 353.016 343.154 353.252C342.88 353.701 342.399 353.985 341.905 353.98C341.142 353.967 340.351 354.464 340.08 355.178C339.926 355.52 339.918 355.933 339.977 356.247C340.043 356.567 340.081 356.886 340.171 357.206C340.261 356.886 340.299 356.567 340.365 356.247C340.402 355.923 340.484 355.685 340.631 355.457C340.928 355.016 341.397 354.759 341.919 354.771C342.712 354.764 343.462 354.231 343.713 353.509C343.856 353.166 343.842 352.742 343.784 352.445C343.719 352.126 343.68 351.806 343.591 351.486C343.501 351.806 343.463 352.125 343.398 352.445ZM383.3 303.46C383.25 303.47 383.2 303.47 383.14 303.47C382.37 303.46 381.58 303.95 381.31 304.67C381.16 305.01 381.15 305.42 381.21 305.74C381.27 306.06 381.31 306.38 381.4 306.7C381.49 306.38 381.53 306.06 381.6 305.74C381.63 305.41 381.72 305.18 381.86 304.95C382.16 304.51 382.63 304.25 383.15 304.26C383.33 304.26 383.5 304.23 383.67 304.17C383.55 303.93 383.42 303.7 383.3 303.46ZM383.025 394.283C382.987 394.622 382.921 394.854 382.781 395.09C382.508 395.539 382.026 395.823 381.532 395.818C380.769 395.805 379.978 396.301 379.707 397.016C379.553 397.358 379.545 397.771 379.604 398.085C379.67 398.405 379.708 398.724 379.798 399.044C379.888 398.725 379.926 398.405 379.992 398.085C380.029 397.761 380.111 397.523 380.258 397.295C380.554 396.854 381.024 396.597 381.546 396.609C382.339 396.602 383.089 396.069 383.34 395.347C383.483 395.004 383.469 394.58 383.411 394.282C383.346 393.962 383.307 393.643 383.218 393.323C383.128 393.644 383.09 393.964 383.025 394.283ZM400.19 343.31C400.18 343.34 400.17 343.36 400.15 343.39C399.88 343.84 399.4 344.13 398.9 344.12C398.14 344.11 397.35 344.61 397.08 345.32C396.92 345.66 396.91 346.08 396.97 346.39C397.04 346.71 397.08 347.03 397.17 347.35C397.26 347.03 397.3 346.71 397.36 346.39C397.4 346.07 397.48 345.83 397.63 345.6C397.92 345.16 398.39 344.9 398.92 344.91C399.52 344.91 400.11 344.59 400.46 344.12C400.46 344.12 400.46 344.12 400.46 344.11C400.37 343.85 400.28 343.58 400.19 343.31ZM312.401 354.457C312.363 354.796 312.297 355.028 312.157 355.264C311.883 355.713 311.402 355.997 310.908 355.992C310.144 355.979 309.354 356.475 309.083 357.19C308.929 357.532 308.921 357.945 308.98 358.259C309.046 358.579 309.084 358.898 309.174 359.218C309.264 358.899 309.302 358.579 309.368 358.259C309.405 357.935 309.487 357.697 309.634 357.469C309.931 357.028 310.4 356.771 310.922 356.783C311.715 356.776 312.465 356.243 312.716 355.521C312.859 355.178 312.845 354.754 312.787 354.457C312.722 354.137 312.683 353.818 312.594 353.498C312.505 353.817 312.466 354.137 312.401 354.457ZM314.51 304.07C314.34 304.63 314.17 305.18 314 305.74C314.19 305.55 314.34 305.32 314.43 305.07C314.56 304.75 314.55 304.36 314.51 304.07ZM332.516 271.205C332.478 271.544 332.412 271.776 332.272 272.012C331.999 272.461 331.517 272.745 331.023 272.74C330.259 272.727 329.469 273.223 329.198 273.938C329.044 274.28 329.036 274.694 329.095 275.007C329.161 275.327 329.199 275.646 329.289 275.966C329.379 275.646 329.417 275.327 329.483 275.007C329.52 274.683 329.602 274.445 329.749 274.217C330.046 273.776 330.515 273.519 331.037 273.531C331.83 273.524 332.58 272.991 332.831 272.269C332.974 271.926 332.96 271.502 332.902 271.205C332.837 270.885 332.798 270.566 332.709 270.246C332.619 270.565 332.581 270.885 332.516 271.205ZM327.575 321.912C327.537 322.251 327.471 322.483 327.331 322.719C327.058 323.168 326.576 323.452 326.082 323.447C325.319 323.434 324.528 323.93 324.257 324.645C324.103 324.987 324.095 325.4 324.154 325.714C324.22 326.033 324.258 326.353 324.348 326.673C324.438 326.353 324.476 326.034 324.542 325.714C324.579 325.39 324.661 325.152 324.808 324.924C325.104 324.483 325.574 324.227 326.096 324.238C326.889 324.231 327.639 323.698 327.89 322.976C328.033 322.633 328.019 322.208 327.961 321.911C327.896 321.591 327.857 321.272 327.768 320.952C327.678 321.272 327.64 321.592 327.575 321.912ZM371.941 328.728C371.903 329.067 371.837 329.299 371.697 329.535C371.424 329.984 370.942 330.268 370.448 330.263C369.685 330.25 368.894 330.746 368.623 331.461C368.469 331.803 368.461 332.217 368.52 332.53C368.586 332.85 368.624 333.169 368.714 333.489C368.804 333.169 368.842 332.85 368.908 332.53C368.945 332.206 369.027 331.968 369.174 331.74C369.471 331.299 369.94 331.043 370.462 331.054C371.255 331.047 372.005 330.514 372.256 329.792C372.399 329.448 372.385 329.025 372.327 328.728C372.262 328.408 372.223 328.089 372.134 327.769C372.044 328.088 372.006 328.408 371.941 328.728ZM330.936 385.667C330.898 386.006 330.832 386.238 330.692 386.474C330.418 386.923 329.937 387.207 329.443 387.202C328.68 387.189 327.889 387.686 327.618 388.4C327.464 388.742 327.456 389.156 327.515 389.469C327.581 389.789 327.619 390.108 327.709 390.428C327.799 390.108 327.837 389.789 327.903 389.469C327.94 389.145 328.022 388.907 328.169 388.679C328.466 388.238 328.935 387.982 329.457 387.993C330.25 387.986 331 387.453 331.251 386.731C331.394 386.388 331.38 385.964 331.322 385.667C331.257 385.347 331.218 385.028 331.129 384.708C331.04 385.028 331.001 385.348 330.936 385.667ZM365.345 311.132C365.611 310.919 365.822 310.802 366.088 310.734C366.599 310.61 367.14 310.75 367.486 311.102C368.017 311.651 368.927 311.859 369.624 311.545C369.974 311.412 370.273 311.125 370.453 310.862C370.632 310.59 370.831 310.336 370.994 310.047C370.705 310.209 370.451 310.408 370.179 310.588C369.924 310.791 369.697 310.901 369.432 310.959C368.911 311.061 368.397 310.91 368.037 310.533C367.471 309.977 366.564 309.824 365.876 310.157C365.532 310.299 365.242 310.609 365.073 310.86C364.893 311.132 364.694 311.385 364.531 311.674C364.82 311.51 365.073 311.312 365.345 311.132ZM339.464 334.574C339.73 334.361 339.941 334.244 340.207 334.176C340.718 334.052 341.259 334.191 341.605 334.544C342.136 335.093 343.046 335.301 343.743 334.987C344.093 334.854 344.392 334.567 344.571 334.304C344.75 334.032 344.949 333.778 345.112 333.489C344.823 333.652 344.569 333.85 344.297 334.03C344.042 334.233 343.815 334.343 343.55 334.401C343.029 334.503 342.515 334.352 342.154 333.975C341.588 333.419 340.681 333.266 339.994 333.599C339.65 333.741 339.36 334.051 339.191 334.302C339.011 334.574 338.812 334.827 338.649 335.116C338.939 334.952 339.192 334.754 339.464 334.574ZM321.931 369.108C322.197 368.895 322.408 368.778 322.674 368.71C323.185 368.586 323.726 368.725 324.072 369.078C324.603 369.627 325.513 369.835 326.21 369.521C326.56 369.388 326.859 369.101 327.038 368.838C327.217 368.566 327.416 368.312 327.579 368.023C327.29 368.186 327.036 368.384 326.764 368.564C326.509 368.767 326.282 368.877 326.017 368.935C325.496 369.037 324.982 368.886 324.622 368.509C324.056 367.953 323.149 367.8 322.461 368.133C322.117 368.275 321.827 368.585 321.658 368.836C321.478 369.108 321.279 369.361 321.116 369.65C321.406 369.487 321.659 369.288 321.931 369.108ZM329.51 404.993C329.776 404.78 329.987 404.663 330.253 404.595C330.763 404.471 331.305 404.61 331.651 404.963C332.182 405.512 333.092 405.72 333.789 405.406C334.139 405.273 334.438 404.986 334.618 404.723C334.798 404.45 334.996 404.197 335.159 403.908C334.869 404.071 334.616 404.269 334.344 404.449C334.089 404.652 333.862 404.762 333.597 404.82C333.076 404.922 332.562 404.771 332.202 404.394C331.636 403.838 330.729 403.685 330.041 404.018C329.697 404.16 329.408 404.47 329.238 404.721C329.058 404.993 328.859 405.246 328.696 405.535C328.985 405.372 329.238 405.173 329.51 404.993ZM363.437 365.558C363.703 365.345 363.914 365.227 364.18 365.16C364.691 365.036 365.232 365.175 365.578 365.528C366.109 366.077 367.019 366.285 367.716 365.971C368.066 365.838 368.365 365.551 368.544 365.288C368.723 365.016 368.922 364.762 369.085 364.473C368.796 364.636 368.542 364.834 368.27 365.014C368.015 365.217 367.788 365.327 367.523 365.385C367.002 365.487 366.488 365.336 366.127 364.959C365.561 364.403 364.654 364.25 363.966 364.583C363.622 364.725 363.332 365.035 363.163 365.286C362.983 365.558 362.784 365.811 362.621 366.1C362.912 365.937 363.165 365.738 363.437 365.558ZM386.79 379.851C387.056 379.638 387.267 379.52 387.533 379.453C388.044 379.329 388.585 379.469 388.931 379.821C389.462 380.37 390.372 380.578 391.069 380.264C391.419 380.131 391.718 379.844 391.898 379.581C392.077 379.309 392.276 379.055 392.439 378.766C392.15 378.929 391.896 379.127 391.624 379.307C391.369 379.51 391.142 379.62 390.877 379.678C390.356 379.78 389.842 379.629 389.481 379.252C388.915 378.696 388.008 378.543 387.321 378.876C386.977 379.018 386.687 379.328 386.518 379.579C386.338 379.851 386.139 380.104 385.976 380.393C386.265 380.229 386.518 380.031 386.79 379.851ZM347.509 390.7C347.775 390.487 347.986 390.37 348.252 390.302C348.763 390.178 349.304 390.317 349.65 390.67C350.181 391.219 351.091 391.427 351.788 391.113C352.138 390.98 352.437 390.693 352.616 390.43C352.795 390.157 352.994 389.904 353.157 389.615C352.867 389.778 352.614 389.976 352.342 390.156C352.087 390.359 351.86 390.469 351.595 390.527C351.074 390.629 350.56 390.478 350.199 390.101C349.633 389.545 348.726 389.392 348.038 389.725C347.694 389.867 347.404 390.177 347.235 390.428C347.055 390.7 346.856 390.953 346.693 391.242C346.983 391.079 347.236 390.88 347.509 390.7ZM398.171 404.993C398.437 404.78 398.648 404.663 398.914 404.595C399.425 404.471 399.966 404.61 400.312 404.963C400.843 405.512 401.753 405.72 402.45 405.406C402.8 405.273 403.099 404.986 403.279 404.723C403.458 404.45 403.657 404.197 403.82 403.908C403.531 404.071 403.277 404.269 403.005 404.449C402.75 404.652 402.523 404.762 402.258 404.82C401.737 404.922 401.223 404.771 400.862 404.394C400.296 403.838 399.389 403.685 398.701 404.018C398.357 404.16 398.067 404.47 397.898 404.721C397.718 404.993 397.519 405.246 397.356 405.535C397.645 405.372 397.898 405.173 398.171 404.993ZM407.21 366.15C406.97 366.08 406.76 365.95 406.58 365.77C406.02 365.22 405.11 365.06 404.42 365.4C404.08 365.54 403.79 365.85 403.62 366.1C403.44 366.37 403.24 366.62 403.08 366.91C403.37 366.75 403.62 366.55 403.89 366.37C404.16 366.16 404.37 366.04 404.63 365.97C405.14 365.85 405.69 365.99 406.03 366.34C406.38 366.71 406.9 366.92 407.42 366.93C407.35 366.67 407.28 366.41 407.21 366.15ZM311.361 395.643C311.627 395.43 311.838 395.312 312.104 395.245C312.615 395.121 313.156 395.26 313.502 395.613C314.033 396.162 314.943 396.37 315.64 396.056C315.99 395.923 316.289 395.636 316.468 395.373C316.647 395.101 316.846 394.847 317.009 394.558C316.719 394.721 316.466 394.919 316.194 395.099C315.939 395.302 315.712 395.412 315.447 395.47C314.926 395.572 314.412 395.421 314.051 395.044C313.485 394.488 312.578 394.335 311.89 394.668C311.546 394.81 311.256 395.12 311.087 395.371C310.907 395.643 310.708 395.896 310.545 396.185C310.835 396.022 311.088 395.823 311.361 395.643ZM308.467 335.387C308.733 335.174 308.944 335.057 309.21 334.989C309.721 334.865 310.262 335.004 310.608 335.357C311.139 335.906 312.049 336.114 312.746 335.8C313.096 335.667 313.395 335.38 313.575 335.117C313.755 334.845 313.953 334.591 314.116 334.302C313.827 334.464 313.573 334.663 313.301 334.843C313.046 335.046 312.819 335.156 312.554 335.214C312.033 335.316 311.519 335.165 311.158 334.788C310.592 334.232 309.685 334.079 308.997 334.412C308.653 334.554 308.363 334.864 308.194 335.115C308.014 335.387 307.815 335.64 307.652 335.929C307.942 335.766 308.195 335.567 308.467 335.387Z" fill="white"/>
<path d="M314.8 302.066C313.696 306.057 312.63 310.053 311.599 314.057C311.733 312.31 311.923 310.566 312.148 308.829C312.161 308.726 312.005 308.682 311.983 308.789C311.54 310.953 311.325 313.141 311.266 315.339C310.035 320.169 308.867 325.013 307.794 329.886C305.737 339.225 303.909 348.63 302.395 358.066C301.541 363.387 300.879 368.744 299.968 374.054C299.951 374.153 300.108 374.192 300.126 374.092C300.961 369.382 302.07 364.697 303.096 360.021C304.116 355.375 305.104 350.723 306.069 346.067C308.009 336.704 310.061 327.364 311.991 317.999C313.078 312.723 314.09 307.433 315.18 302.158C315.227 301.92 314.865 301.83 314.8 302.066Z" fill="#263238"/>
<path d="M310.111 239.778C311.442 247.06 307.342 253.91 300.953 255.077C294.564 256.244 288.307 251.288 286.976 244.006C285.645 236.724 289.745 229.874 296.134 228.707C302.522 227.54 308.78 232.496 310.111 239.778Z" fill="#455A64"/>
<path d="M313.943 239.553C315.424 247.654 310.862 255.274 303.755 256.573C296.648 257.872 289.686 252.358 288.206 244.257C286.726 236.156 291.287 228.536 298.394 227.237C305.501 225.938 312.463 231.452 313.943 239.553Z" fill="#C7C7C7"/>
<path d="M334.21 296.705C341.449 296.663 350.664 283.35 353.249 273.745C353.422 273.086 345.368 250.418 344.239 245.761C344.012 244.804 316.75 259.943 316.75 259.943C316.75 259.943 321.99 269.009 323.909 277.141C324.062 277.823 327.213 296.741 334.21 296.705Z" fill="#DD6A57"/>
<path d="M327.248 278.86C326.218 279.13 325.268 279.32 324.358 279.39C324.238 278.82 324.138 278.34 324.068 277.97C324.068 277.96 324.068 277.94 324.058 277.92C324.058 277.88 324.048 277.83 324.038 277.79C324.008 277.65 323.988 277.5 323.948 277.35C323.948 277.32 323.938 277.29 323.928 277.26C323.918 277.22 323.908 277.18 323.898 277.14C323.478 275.36 322.898 273.54 322.258 271.78C320.778 267.74 318.928 264.02 317.798 261.87C317.658 261.6 317.528 261.36 317.408 261.15C317.048 260.48 316.818 260.07 316.768 259.97C316.748 259.96 316.748 259.95 316.748 259.95C316.748 259.95 316.748 259.95 316.758 259.95C316.818 259.91 317.068 259.77 317.478 259.54C317.738 259.4 318.058 259.22 318.438 259.01C318.458 259.01 318.468 259 318.478 258.99C318.678 258.88 318.898 258.76 319.118 258.64C319.368 258.5 319.628 258.36 319.908 258.2C320.138 258.08 320.388 257.94 320.638 257.8C320.678 257.78 320.728 257.75 320.778 257.72C321.078 257.56 321.398 257.39 321.728 257.2C321.798 257.16 321.878 257.12 321.948 257.08C322.258 256.91 322.578 256.74 322.898 256.56C323.058 256.47 323.228 256.38 323.398 256.29C323.898 256.02 324.408 255.74 324.938 255.45C325.328 255.24 325.718 255.03 326.118 254.81C326.448 254.63 326.788 254.45 327.118 254.27C328.238 253.66 329.388 253.04 330.538 252.43C330.908 252.23 331.278 252.03 331.638 251.83C332.988 251.11 334.318 250.41 335.588 249.75C335.878 249.6 336.158 249.45 336.438 249.31C336.628 249.21 336.818 249.11 336.998 249.02C337.228 248.9 337.448 248.79 337.668 248.67C338.168 248.41 338.648 248.17 339.108 247.94C339.408 247.79 339.708 247.64 339.988 247.5C340.418 247.28 340.818 247.09 341.198 246.91C341.388 246.81 341.578 246.73 341.748 246.65C342.268 246.4 342.718 246.2 343.088 246.05C343.178 246.01 343.258 245.98 343.328 245.95V245.96C343.668 253.85 343.038 274.64 327.248 278.86Z" fill="#263238"/>
<path d="M336.059 210.673C342.514 219.756 346.91 250.744 341.889 259.653C334.61 272.569 317.842 279.16 305.644 269.302C293.82 259.746 288.806 219.26 294.866 210.665C303.793 198.005 326.523 197.257 336.059 210.673Z" fill="#DD6A57"/>
<path d="M312.947 238.025C312.952 237.943 313.125 238.1 313.134 238.186C313.374 240.281 314.002 242.641 315.991 243.056C316.053 243.069 316.062 243.175 315.991 243.175C313.64 243.19 312.838 240.049 312.947 238.025Z" fill="#263238"/>
<path d="M314.49 235.574C317.807 234.827 319.058 241.516 315.985 242.209C312.959 242.89 311.709 236.2 314.49 235.574Z" fill="#263238"/>
<path d="M301.56 240.477C301.529 240.401 301.416 240.605 301.435 240.689C301.888 242.749 302.06 245.184 300.314 246.223C300.26 246.255 300.285 246.358 300.353 246.336C302.581 245.586 302.32 242.355 301.56 240.477Z" fill="#263238"/>
<path d="M299.305 238.658C295.925 239.028 296.914 245.761 300.045 245.418C303.127 245.082 302.138 238.348 299.305 238.658Z" fill="#263238"/>
<path d="M316.557 232.022C315.603 231.963 314.733 231.749 313.796 231.594C312.738 231.418 311.878 231.387 311.063 230.62C310.626 230.209 310.611 229.327 310.971 228.865C311.809 227.789 313.157 227.682 314.439 227.842C315.83 228.015 316.858 228.505 317.825 229.516C318.762 230.496 317.815 232.099 316.557 232.022Z" fill="#263238"/>
<path d="M296.089 235.774C296.988 235.449 297.763 235 298.619 234.587C299.585 234.121 300.402 233.849 300.968 232.885C301.272 232.367 301.039 231.518 300.564 231.175C299.458 230.378 298.134 230.655 296.949 231.168C295.663 231.725 294.814 232.484 294.17 233.726C293.544 234.929 294.903 236.202 296.089 235.774Z" fill="#263238"/>
<path d="M319.005 256.77C318.599 257.348 318.229 258.109 317.489 258.312C316.779 258.507 315.873 258.34 315.164 258.207C315.094 258.194 315.04 258.276 315.094 258.33C315.781 259.025 317.006 259.311 317.935 258.963C318.843 258.624 319.155 257.726 319.222 256.825C319.23 256.7 319.064 256.686 319.005 256.77Z" fill="#263238"/>
<path d="M315.667 250.973C314.843 252.989 313.322 254.291 311.544 254.993C310.752 255.312 309.891 255.503 309.028 255.584C308.861 255.612 308.69 255.624 308.533 255.619C308.378 255.629 308.239 255.637 308.066 255.634C307.817 255.644 307.647 255.469 307.564 255.248L307.561 255.233C307.548 255.157 307.538 255.096 307.541 255.017C307.541 255.017 307.541 255.017 307.538 255.002L307.508 254.82C307.166 253.233 306.867 250.777 306.867 250.777C306.338 251.178 303.616 253.071 303.507 252.228C302.629 245.251 301.653 237.491 302.252 230.363C302.26 230.127 302.617 230.114 302.64 230.345C303.749 237.018 303.678 243.84 304.685 250.56C305.566 250.022 306.989 249.066 307.826 248.927C308.065 248.95 308.319 253.683 308.529 254.383C308.529 254.383 308.534 254.414 308.557 254.457C311.302 254.299 313.171 253.111 315.437 250.824C315.57 250.676 315.76 250.785 315.667 250.973Z" fill="#263238"/>
<path d="M309.818 254.599C309.818 254.599 311.589 256.243 313.655 256.57C314.416 256.693 315.204 256.65 315.969 256.285C317.543 255.541 317.3 254.014 316.753 252.772C316.307 251.749 315.639 250.922 315.639 250.922C315.639 250.922 313.647 253.635 309.818 254.599Z" fill="#263238"/>
<path d="M313.655 256.57C314.416 256.693 315.204 256.65 315.969 256.285C317.543 255.541 317.3 254.014 316.753 252.772C315.014 253.285 313.483 254.818 313.655 256.57Z" fill="#FF99BA"/>
<path opacity="0.2" d="M334.897 223.68C336.957 226.293 341.464 232.545 342.992 232.625C341.413 222.538 338.835 213.726 334.817 209.042C333.078 207.015 331.166 205.517 328.914 204.273C329.489 206.93 332.713 220.946 334.897 223.68Z" fill="#263238"/>
<path d="M304.837 217.545C307.381 219.891 310.964 220.837 314.319 219.899C317.587 218.985 320.632 216.312 321.463 212.951C321.488 212.851 321.643 212.889 321.619 212.99C320.73 216.584 318.254 219.74 314.549 220.681C311.071 221.564 307.092 220.367 304.667 217.726C304.56 217.609 304.719 217.436 304.837 217.545Z" fill="#263238"/>
<path d="M312.38 191.785C318.169 191.261 323.831 193.86 326.385 197.557C327.937 199.803 328.403 202.208 328.294 204.72C328.29 204.822 328.081 204.824 328.078 204.722C327.969 200.775 325.536 196.538 321.039 194.281C316.719 192.113 311.286 191.902 306.857 194.176C304.545 195.363 302.761 197.116 301.968 199.097C301.879 199.319 301.431 199.231 301.5 199.007C302.66 195.225 307.141 192.259 312.38 191.785Z" fill="#263238"/>
<path d="M280.25 208.081C280.841 205.135 282.553 202.473 284.905 200.623C288.201 198.031 292.244 197.903 296.264 197.859C296.373 197.858 296.376 198.027 296.267 198.028C292.845 198.077 289.377 198.327 286.444 200.269C284.053 201.852 282.174 204.257 281.34 207.014C279.61 212.735 282.587 219.253 288.102 221.599C291.224 222.928 294.899 222.89 297.99 221.493C298.112 221.438 298.225 221.613 298.102 221.673C292.473 224.398 285.272 222.504 281.969 217.115C280.338 214.456 279.633 211.157 280.25 208.081Z" fill="#263238"/>
<path d="M339.289 217.294C339.289 217.294 343.562 206.33 338.281 200.888C335.288 197.805 326.725 199.26 326.725 199.26C326.725 199.26 323.368 194.632 316.04 193.836C308.635 193.032 300.556 198.248 300.556 198.248C300.556 198.248 293.249 195.131 287.264 199.55C278.92 205.711 281.637 219.203 291.153 222.526C297.835 224.859 305.762 218.257 305.762 218.257C306.601 218.272 315.651 222.375 321.155 214.084C321.155 214.084 326.891 218.09 331.172 214.308C331.172 214.308 334.083 218.714 339.289 217.294Z" fill="#263238"/>
<path d="M317.341 247.112C312.375 247.415 308.088 243.621 307.784 238.657C307.481 233.69 311.273 229.403 316.24 229.1C321.205 228.796 325.492 232.589 325.797 237.556C326.054 241.756 323.38 245.47 319.546 246.699C318.846 246.924 318.108 247.065 317.341 247.112ZM308.988 238.583C309.252 242.885 312.966 246.171 317.268 245.908C321.568 245.65 324.854 241.931 324.593 237.629C324.328 233.327 320.614 230.04 316.312 230.304C315.649 230.344 315.008 230.467 314.403 230.662C311.081 231.727 308.766 234.945 308.988 238.583Z" fill="#FFC727"/>
<path d="M298.631 250.721C294.997 251.432 291.263 248.039 290.305 243.157C289.848 240.827 290.081 238.498 290.962 236.601C291.873 234.638 293.358 233.361 295.162 233.012C296.959 232.66 298.822 233.277 300.405 234.752C301.937 236.175 303.033 238.244 303.489 240.576C304.393 245.196 302.491 249.52 299.203 250.575C299.017 250.633 298.827 250.682 298.631 250.721ZM292.057 237.108C291.282 238.777 291.08 240.843 291.488 242.926C292.318 247.154 295.417 250.121 298.399 249.537C301.392 248.954 303.133 245.037 302.306 240.806C301.897 238.723 300.93 236.886 299.584 235.634C298.289 234.431 296.8 233.92 295.393 234.196C295.242 234.225 295.095 234.264 294.95 234.31C293.738 234.699 292.722 235.676 292.057 237.108Z" fill="#FFC727"/>
<path d="M308.282 239.623L308.865 238.566C307.301 237.702 303.898 236.794 302.19 239.531L303.213 240.169C304.74 237.716 308.138 239.546 308.282 239.623Z" fill="#FFC727"/>
<path d="M348.182 234.173L349.127 233.424C348.776 232.984 345.632 229.121 342.905 229.209C340.357 229.299 324.78 233.894 324.119 234.091L324.462 235.247C328.926 233.925 340.976 230.479 342.944 230.415C344.745 230.356 347.335 233.108 348.182 234.173Z" fill="#FFC727"/>
<path d="M337.75 236.559C337.75 236.559 341.44 224.984 346.491 226.012C351.542 227.04 350.831 242.376 346.353 245.837C341.875 249.298 338.59 245.216 338.59 245.216L337.75 236.559Z" fill="#DD6A57"/>
<path d="M346.178 230.403C346.257 230.371 346.308 230.48 346.247 230.531C343.144 233.074 342.299 236.949 342.052 240.77C342.699 239.127 343.913 237.96 346.065 238.669C346.178 238.706 346.134 238.879 346.028 238.889C344.476 239.03 343.505 239.608 342.885 241.079C342.446 242.12 342.295 243.311 342.093 244.419C342.026 244.788 341.399 244.797 341.407 244.393C341.408 244.364 341.41 244.332 341.41 244.302C339.911 239.802 341.459 232.371 346.178 230.403Z" fill="#263238"/>
<path d="M343.332 227.796C343.332 227.796 342.613 211.615 336.92 203.28C330.582 194.002 313.082 187.787 300.557 198.248C300.557 198.248 318.745 193.524 330.649 204.697C336.124 209.836 338.018 228.823 338.018 228.823L343.332 227.796Z" fill="#C7C7C7"/>
<path d="M329.194 237.592C330.025 245.785 336.526 251.836 343.714 251.107C350.902 250.378 356.055 243.145 355.224 234.952C354.393 226.759 347.892 220.708 340.704 221.437C333.516 222.166 328.363 229.399 329.194 237.592Z" fill="#C7C7C7"/>
<path d="M332.938 236.742C333.685 244.107 339.529 249.546 345.99 248.89C352.451 248.235 357.083 241.733 356.336 234.368C355.589 227.003 349.746 221.564 343.284 222.22C336.824 222.876 332.191 229.377 332.938 236.742Z" fill="#455A64"/>
<path d="M372.292 280.441C391.673 301.199 437.777 379.097 422.83 393.461C407.776 407.927 324.928 388.49 301.626 377.389C294.695 374.087 321.034 330.872 329.181 329.863C335.963 329.023 370.64 344.885 371.643 342.89C372.776 340.636 364.901 326.166 356.558 296.041C346.939 261.304 363.731 271.272 372.292 280.441Z" fill="#DD6A57"/>
<path d="M294.745 315.915C277.899 313.569 273.213 315.552 260.047 306.022C251.407 299.768 243.706 302.601 248.636 312.538C256.698 328.791 277.797 336.383 285.87 336.909L294.745 315.915Z" fill="#DD6A57"/>
<path d="M339.492 332.132C339.492 332.132 320.563 321.621 302.858 317.344C290.614 314.387 263.259 310.923 237.087 337.913C230.879 344.315 226.573 357.839 240.51 351.066C250.41 346.254 255.234 340.212 261.501 338.462C261.501 338.462 258.066 356.315 264.722 362.284C267.696 364.952 275.986 372.042 283.227 376.642C283.227 376.642 284.653 375.334 286.224 373.42C286.224 373.42 292.968 378.409 305.664 377.2L339.492 332.132Z" fill="#DD6A57"/>
<path d="M290.722 316.388C284.868 319.441 272.57 326.118 264.41 335.079C255.346 345.033 240.568 366.65 247.984 373.265C253.422 378.116 259.79 370.358 259.79 370.358C259.79 370.358 255.565 380.58 261.436 383.888C266.786 386.902 271.353 380.605 271.353 380.605C271.353 380.605 269.856 387.247 275.569 389.157C282.44 391.455 284.449 377.159 293.42 373.473C295.434 372.646 290.722 316.388 290.722 316.388Z" fill="#DD6A57"/>
<path d="M276.524 342.902C271.489 346.675 262.254 358.178 259.699 370.094C259.641 370.364 259.814 370.553 259.919 370.317C265.518 357.796 273.122 347.264 276.617 342.987C276.665 342.93 276.581 342.86 276.524 342.902Z" fill="#263238"/>
<path d="M286.306 352.344C282.297 356.046 273.307 368.328 271.133 380.491C271.084 380.763 271.271 380.94 271.366 380.701C276.677 367.377 283.171 356.901 286.405 352.424C286.448 352.364 286.358 352.296 286.306 352.344Z" fill="#263238"/>
<path d="M261.497 338.352C256.007 339.968 252.436 342.662 247.803 345.879C245.511 347.47 243.188 349.03 240.731 350.358C238.494 351.567 235.196 353.396 232.814 351.502C231.488 350.448 231.508 348.529 231.802 347.017C232.133 345.318 232.783 343.685 233.791 342.275C233.842 342.204 233.719 342.112 233.666 342.183C232.736 343.437 231.935 344.772 231.395 346.241C230.906 347.571 230.524 349.118 230.899 350.526C231.706 353.554 235.275 353.951 237.804 353.118C239.316 352.62 240.748 351.816 242.125 351.027C243.456 350.264 244.75 349.436 246.021 348.578C248.631 346.815 251.136 344.903 253.725 343.11C256.57 341.14 258.534 340.176 261.579 338.536C261.683 338.48 261.606 338.32 261.497 338.352Z" fill="#263238"/>
<path d="M250.001 357.667C251.421 354.537 259.115 341.499 261.61 338.482C261.674 338.405 261.57 338.305 261.497 338.374C257.218 342.431 250.341 353.204 248.738 356.656C247.154 360.067 245.33 364.427 245.33 368.23C245.329 373.966 249.134 375.053 250.541 375.334C252.22 375.669 253.915 375.316 255.423 374.535C257.101 373.666 258.725 371.863 259.848 370.377C259.907 370.299 259.803 370.192 259.735 370.269C257.748 372.528 254.445 374.759 251.328 374.349C249.976 374.171 248.606 373.556 247.78 372.435C246.809 371.118 246.732 369.385 246.863 367.815C247.16 364.261 248.542 360.883 250.001 357.667Z" fill="#263238"/>
<path d="M271.133 380.491C270.335 381.175 268.689 383.553 266.075 384.061C264.164 384.433 262.164 384.252 260.696 382.86C259.258 381.496 258.719 379.57 258.631 377.643C258.581 376.553 259.451 371.844 259.832 370.424C259.862 370.312 259.722 370.262 259.688 370.367C258.859 372.898 257.966 375.653 257.965 378.133C257.964 380.197 258.616 382.411 260.162 383.851C261.761 385.342 264.105 385.869 266.166 385.097C267.188 384.715 270.416 382.647 271.354 380.605C271.373 380.561 271.168 380.461 271.133 380.491Z" fill="#263238"/>
<path d="M292.877 372.444C291.975 372.976 291.196 373.773 290.445 374.495C289.64 375.27 288.863 376.076 288.105 376.897C286.589 378.538 285.278 380.416 284.136 382.333C282.978 384.279 281.911 386.448 280.02 387.801C278.17 389.126 275.627 389.336 273.741 387.957C272.758 387.238 272.096 386.218 271.779 385.048C271.453 383.844 271.234 382.377 271.413 381.135C271.429 381.023 271.268 381.004 271.259 381.118C271.164 382.326 270.837 383.448 270.977 384.673C271.101 385.751 271.452 386.817 272.101 387.694C273.432 389.491 275.79 390.28 277.958 389.882C280.354 389.442 282.112 387.64 283.413 385.692C284.862 383.523 286.055 381.209 287.603 379.1C288.417 377.991 289.217 376.871 290.109 375.822C291.037 374.731 292.151 373.753 293.007 372.608C293.077 372.515 292.988 372.379 292.877 372.444Z" fill="#263238"/>
<path d="M299.589 377.337C297.787 377.182 293.63 376.488 290.35 375.421C290.254 375.39 290.119 375.66 290.207 375.708C291.431 376.383 293.991 377.055 294.763 377.212C296.304 377.526 297.992 377.666 299.565 377.505C299.654 377.496 299.694 377.346 299.589 377.337Z" fill="#263238"/>
<path d="M403.013 358.039C398.178 354.734 393.02 351.894 387.763 349.324C382.555 346.778 377.097 344.805 371.578 343.054C368.425 342.054 365.235 341.209 362.044 340.342C361.946 340.316 361.91 340.465 362.006 340.494C367.573 342.165 373.019 344.332 378.352 346.632C383.665 348.923 388.927 351.305 394.151 353.79C397.106 355.196 399.994 356.741 402.9 358.244C403.036 358.315 403.136 358.123 403.013 358.039Z" fill="#263238"/>
<path d="M411.988 329.4L364.942 327.843C364.942 327.843 356.185 304.62 352.851 283.963C349.517 263.305 366.438 269.611 384.104 291.727C401.769 313.844 411.988 329.4 411.988 329.4Z" fill="#FFC727"/>
<path d="M370.18 310.59C369.92 310.79 369.7 310.9 369.43 310.96C368.91 311.06 368.4 310.91 368.04 310.53C367.47 309.98 366.56 309.82 365.88 310.16C365.53 310.3 365.24 310.61 365.07 310.86C364.89 311.13 364.69 311.38 364.53 311.67C364.82 311.51 365.07 311.31 365.35 311.13C365.61 310.92 365.82 310.8 366.09 310.73C366.6 310.61 367.14 310.75 367.49 311.1C368.02 311.65 368.93 311.86 369.62 311.55C369.97 311.41 370.27 311.13 370.45 310.86C370.63 310.59 370.83 310.34 370.99 310.05C370.7 310.21 370.45 310.41 370.18 310.59ZM385.02 301.94C384.95 301.62 384.91 301.3 384.82 300.98C384.73 301.3 384.69 301.62 384.63 301.94C384.59 302.27 384.53 302.51 384.39 302.74C384.11 303.19 383.63 303.48 383.14 303.47C382.37 303.46 381.58 303.95 381.31 304.67C381.16 305.01 381.15 305.42 381.21 305.74C381.27 306.06 381.31 306.38 381.4 306.7C381.49 306.38 381.53 306.06 381.6 305.74C381.63 305.41 381.72 305.18 381.86 304.95C382.16 304.51 382.63 304.25 383.15 304.26C383.94 304.25 384.69 303.72 384.94 303C385.09 302.66 385.07 302.23 385.02 301.94ZM368.49 276.07C368.49 276.19 368.5 276.3 368.52 276.41C368.59 276.72 368.62 277.04 368.71 277.36C368.8 277.04 368.84 276.72 368.91 276.41C368.91 276.4 368.91 276.4 368.91 276.39C368.77 276.27 368.63 276.17 368.49 276.07ZM402.03 315.2C401.67 315.19 401.34 315.04 401.1 314.79C400.57 314.24 399.66 314.04 398.96 314.35C398.61 314.48 398.31 314.77 398.13 315.03C397.95 315.31 397.75 315.56 397.59 315.85C397.88 315.69 398.13 315.49 398.41 315.31C398.66 315.1 398.89 314.99 399.15 314.94C399.67 314.83 400.19 314.99 400.55 315.36C401.05 315.86 401.83 316.03 402.48 315.83C402.34 315.63 402.19 315.42 402.03 315.2ZM369.47 291.75C369.14 291.71 368.9 291.63 368.67 291.49C368.23 291.19 367.98 290.72 367.99 290.2C367.98 289.4 367.45 288.65 366.73 288.4C366.38 288.26 365.96 288.27 365.66 288.33C365.34 288.4 365.02 288.44 364.7 288.53C365.02 288.61 365.34 288.65 365.66 288.72C366 288.76 366.23 288.82 366.47 288.96C366.92 289.24 367.2 289.72 367.2 290.21C367.19 290.97 367.68 291.77 368.4 292.04C368.74 292.19 369.15 292.2 369.47 292.14C369.78 292.07 370.1 292.04 370.42 291.95C370.1 291.86 369.78 291.82 369.47 291.75ZM391.11 324.66C390.78 324.62 390.55 324.54 390.32 324.39C389.88 324.1 389.62 323.63 389.63 323.1C389.62 322.31 389.09 321.56 388.37 321.31C388.03 321.17 387.6 321.18 387.31 321.24C386.99 321.31 386.67 321.34 386.35 321.43C386.67 321.52 386.99 321.56 387.31 321.63C387.64 321.66 387.88 321.73 388.11 321.87C388.56 322.14 388.85 322.62 388.84 323.12C388.83 323.88 389.32 324.67 390.04 324.94C390.38 325.1 390.79 325.11 391.11 325.05C391.43 324.98 391.75 324.94 392.07 324.85C391.75 324.76 391.43 324.72 391.11 324.66Z" fill="white"/>
<path d="M366.877 327.684C366.624 327.682 364.969 327.393 364.962 327.393C364.844 326.775 362.16 317.07 361.455 314.957C360.018 310.654 358.328 306.423 356.698 302.19C356.646 302.056 356.44 302.114 356.481 302.256C357.543 305.897 358.539 309.564 359.629 313.198C359.3 312.683 358.976 312.164 358.664 311.638C358.027 310.56 357.471 309.44 356.876 308.339C356.823 308.241 356.668 308.314 356.699 308.419C357.165 309.948 357.93 311.396 358.773 312.747C359.136 313.329 359.558 313.879 359.996 314.409C360.089 314.711 360.177 315.015 360.271 315.316C360.939 317.44 364.384 327.948 364.56 327.959C364.603 327.962 366.303 327.999 366.829 328.003C366.96 328.003 367.007 327.685 366.877 327.684Z" fill="#263238"/>
<path d="M404.373 320.292C394.227 319.534 384.013 319.485 373.825 319.637C370.943 319.68 368.06 319.79 365.183 319.969C365.102 319.974 365.086 320.093 365.172 320.097C370.247 320.368 375.33 320.432 380.415 320.526C385.512 320.62 390.618 320.672 395.718 320.624C398.598 320.596 401.476 320.571 404.356 320.484C404.481 320.48 404.5 320.301 404.373 320.292Z" fill="#263238"/>
<path d="M241.48 410.665H248.663V405.975H241.48V410.665Z" fill="#455A64"/>
<path d="M232.165 410.355H239.348V405.665H232.165V410.355Z" fill="#455A64"/>
<path d="M222.85 410.045H230.033V405.355H222.85V410.045Z" fill="#455A64"/>
<path d="M213.534 409.735H220.717V405.046H213.534V409.735Z" fill="#455A64"/>
<path d="M204.22 409.425H211.403V404.735H204.22V409.425Z" fill="#455A64"/>
<path d="M194.905 409.115H202.088V404.425H194.905V409.115Z" fill="#455A64"/>
<path d="M185.59 408.805H192.773V404.115H185.59V408.805Z" fill="#455A64"/>
<path d="M176.275 408.495H183.458V403.805H176.275V408.495Z" fill="#455A64"/>
<path d="M166.96 408.185H174.143V403.495H166.96V408.185Z" fill="#455A64"/>
<path d="M165.202 413.362H250.421V407.656L165.202 405.28V413.362Z" fill="#37474F"/>
<path d="M82.025 390.859H222.71L200.336 286.123H59.652L82.025 390.859Z" fill="#455A64"/>
<path d="M76.821 390.859H217.506L195.132 286.123H54.448L76.821 390.859Z" fill="#37474F"/>
<path d="M123.819 332.422C124.58 337.226 129.091 341.12 133.895 341.12C138.699 341.12 141.977 337.226 141.216 332.422C140.455 327.618 135.944 323.724 131.14 323.724C126.336 323.724 123.058 327.618 123.819 332.422Z" fill="#263238"/>
<path d="M116.61 418.213H185.803V412.84L116.61 410.602V418.213Z" fill="#455A64"/>
<path d="M97.798 418.205H134.948L157.321 359.517H120.171L97.798 418.205Z" fill="#455A64"/>
<path d="M91.683 418.205H128.833L151.206 359.517H114.057L91.683 418.205Z" fill="#263238"/>
<path d="M253.052 419.64C253.052 419.64 318.298 419.64 324.388 419.64C330.478 419.64 321.668 402.305 299.449 395.655C277.231 389.004 246.044 413.137 253.052 419.64Z" fill="#37474F"/>
<path d="M281.045 419.64C280.611 417.729 280.005 415.884 279.32 414.083C278.614 412.289 277.785 410.552 276.794 408.917C275.838 407.257 274.638 405.757 273.33 404.364L272.316 403.341L271.211 402.413C270.511 401.731 269.64 401.293 268.869 400.671C270.649 401.46 272.435 402.416 273.871 403.803C275.345 405.135 276.64 406.685 277.649 408.402C278.664 410.113 279.483 411.936 280.055 413.83C280.632 415.719 280.995 417.677 281.045 419.64Z" fill="#263238"/>
<path d="M272.592 403.146C271.616 403.671 270.636 404.173 269.681 404.724C268.713 405.247 267.754 405.785 266.811 406.348C264.93 407.478 263.058 408.617 261.291 409.896C259.508 411.151 257.821 412.534 256.317 414.091C255.571 414.874 254.889 415.719 254.326 416.642C253.735 417.55 253.302 418.56 253.051 419.64C253.077 418.526 253.429 417.431 253.896 416.408C254.394 415.395 255.036 414.46 255.741 413.583C257.17 411.838 258.903 410.384 260.712 409.083C262.535 407.794 264.455 406.658 266.447 405.676C268.437 404.693 270.474 403.806 272.592 403.146Z" fill="#263238"/>
<path d="M386.988 378.132L382.755 431.366H353.467L349.233 378.132H386.988Z" fill="#FFC727"/>
<path opacity="0.1" d="M386.988 378.132L382.755 431.366H353.467L349.233 378.132H386.988Z" fill="black"/>
<path d="M389.51 373.326H346.463V381.087H389.51V373.326Z" fill="#455A64"/>
<path d="M386.56 373.326H349.413L351.584 364.607H384.389L386.56 373.326Z" fill="#37474F"/>
<path d="M378.279 405.217C378.279 412.128 373.727 417.731 368.111 417.731C362.495 417.731 357.943 412.128 357.943 405.217C357.943 398.306 362.495 392.703 368.111 392.703C373.726 392.703 378.279 398.306 378.279 405.217Z" fill="white"/>
</svg>
